<svg xmlns="http://www.w3.org/2000/svg" xmlns:xlink="http://www.w3.org/1999/xlink"><symbol id="size-12" viewBox="0 0 12 12" fill="none"><path fill="currentColor" fill-rule="evenodd" d="M8.5 1.625a2.5 2.5 0 0 1 2.5 2.5v3.75a2.5 2.5 0 0 1-2.5 2.5h-5a2.5 2.5 0 0 1-2.5-2.5v-3.75a2.5 2.5 0 0 1 2.5-2.5zM5 9.375h3.5a1.5 1.5 0 0 0 1.5-1.5v-3.75a1.5 1.5 0 0 0-1.5-1.5H5zm-1.5-6.75a1.5 1.5 0 0 0-1.5 1.5v3.75a1.5 1.5 0 0 0 1.5 1.5H4v-6.75z" clip-rule="evenodd" style="fill-opacity:1"/></symbol><symbol id="size-16" viewBox="0 0 16 16" fill="none"><path fill="currentColor" fill-rule="evenodd" d="M11.5 2.083a3.25 3.25 0 0 1 3.25 3.25v5.333a3.25 3.25 0 0 1-3.25 3.25h-7a3.25 3.25 0 0 1-3.25-3.25V5.333a3.25 3.25 0 0 1 3.25-3.25zM6.75 12.416h4.75a1.75 1.75 0 0 0 1.75-1.75V5.333a1.75 1.75 0 0 0-1.75-1.75H6.75zM4.5 3.583a1.75 1.75 0 0 0-1.75 1.75v5.333c0 .966.784 1.75 1.75 1.75h.75V3.583z" clip-rule="evenodd" style="fill-opacity:1"/></symbol><symbol id="size-20" viewBox="0 0 20 20" fill="none"><path fill="currentColor" fill-rule="evenodd" d="M14.5 2.667a3.875 3.875 0 0 1 3.875 3.875v6.917a3.875 3.875 0 0 1-3.875 3.875h-9a3.875 3.875 0 0 1-3.875-3.875V6.542A3.875 3.875 0 0 1 5.5 2.667zM8.375 15.584H14.5a2.125 2.125 0 0 0 2.125-2.125V6.542A2.125 2.125 0 0 0 14.5 4.417H8.375zM5.5 4.417a2.125 2.125 0 0 0-2.125 2.125v6.917c0 1.173.952 2.125 2.125 2.125h1.125V4.417z" clip-rule="evenodd" style="fill-opacity:1"/></symbol><symbol id="size-24" viewBox="0 0 24 24" fill="none"><path fill="currentColor" fill-rule="evenodd" d="M17.5 3.25a4.5 4.5 0 0 1 4.5 4.5v8.5a4.5 4.5 0 0 1-4.5 4.5h-11a4.5 4.5 0 0 1-4.5-4.5v-8.5a4.5 4.5 0 0 1 4.5-4.5zM10 18.75h7.5a2.5 2.5 0 0 0 2.5-2.5v-8.5a2.5 2.5 0 0 0-2.5-2.5H10zM6.5 5.25A2.5 2.5 0 0 0 4 7.75v8.5a2.5 2.5 0 0 0 2.5 2.5H8V5.25z" clip-rule="evenodd" style="fill-opacity:1"/></symbol><symbol id="size-28" viewBox="0 0 28 28" fill="none"><path fill="currentColor" fill-rule="evenodd" d="M20.5 3.834a5.125 5.125 0 0 1 5.125 5.125v10.084a5.125 5.125 0 0 1-5.125 5.125h-13a5.125 5.125 0 0 1-5.125-5.125V8.959A5.125 5.125 0 0 1 7.5 3.834zm-8.875 18.084H20.5a2.875 2.875 0 0 0 2.875-2.875V8.959A2.875 2.875 0 0 0 20.5 6.084h-8.875zM7.5 6.084a2.875 2.875 0 0 0-2.875 2.875v10.084A2.875 2.875 0 0 0 7.5 21.918h1.875V6.084z" clip-rule="evenodd" style="fill-opacity:1"/></symbol><symbol id="size-32" viewBox="0 0 32 32" fill="none"><path fill="currentColor" fill-rule="evenodd" d="M23.5 4.417a5.75 5.75 0 0 1 5.75 5.75v11.667a5.75 5.75 0 0 1-5.75 5.75h-15a5.75 5.75 0 0 1-5.75-5.75V10.167a5.75 5.75 0 0 1 5.75-5.75zM13.25 25.084H23.5a3.25 3.25 0 0 0 3.25-3.25V10.167a3.25 3.25 0 0 0-3.25-3.25H13.25zM8.5 6.917a3.25 3.25 0 0 0-3.25 3.25v11.667a3.25 3.25 0 0 0 3.25 3.25h2.25V6.917z" clip-rule="evenodd" style="fill-opacity:1"/></symbol></svg>
