<svg xmlns="http://www.w3.org/2000/svg" xmlns:xlink="http://www.w3.org/1999/xlink"><symbol id="size-12" viewBox="0 0 12 12" fill="none"><path fill="currentColor" fill-rule="evenodd" d="M5.497 1.326a4.125 4.125 0 0 1 3.228 6.69l1.883 1.882a.5.5 0 0 1-.707.707L8.013 8.718a4.125 4.125 0 1 1-2.517-7.392m0 1a3.125 3.125 0 1 0 0 6.25 3.125 3.125 0 0 0 0-6.25" clip-rule="evenodd" style="fill-opacity:1"/></symbol><symbol id="size-16" viewBox="0 0 16 16" fill="none"><path fill="currentColor" fill-rule="evenodd" d="M7.328 1.686a5.584 5.584 0 0 1 4.417 8.996l2.458 2.457a.75.75 0 0 1-1.061 1.06l-2.464-2.464a5.584 5.584 0 1 1-3.35-10.05m0 1.5a4.083 4.083 0 1 0 .001 8.166 4.083 4.083 0 0 0 0-8.166" clip-rule="evenodd" style="fill-opacity:1"/></symbol><symbol id="size-20" viewBox="0 0 20 20" fill="none"><path fill="currentColor" fill-rule="evenodd" d="M9.161 2.169A6.917 6.917 0 0 1 14.6 13.356l3.11 3.11a.875.875 0 1 1-1.238 1.238l-3.12-3.118a6.917 6.917 0 1 1-4.19-12.417m0 1.75a5.167 5.167 0 1 0 0 10.334 5.167 5.167 0 0 0 0-10.334" clip-rule="evenodd" style="fill-opacity:1"/></symbol><symbol id="size-24" viewBox="0 0 24 24" fill="none"><path fill="currentColor" fill-rule="evenodd" d="M10.993 2.653a8.25 8.25 0 0 1 6.46 13.38l3.762 3.763A1 1 0 1 1 19.8 21.21l-3.774-3.774a8.25 8.25 0 1 1-5.034-14.783m0 2a6.25 6.25 0 1 0 0 12.5 6.25 6.25 0 0 0 0-12.5" clip-rule="evenodd" style="fill-opacity:1"/></symbol><symbol id="size-28" viewBox="0 0 28 28" fill="none"><path fill="currentColor" fill-rule="evenodd" d="M12.825 3.137c5.293 0 9.584 4.29 9.584 9.583a9.54 9.54 0 0 1-2.104 5.987l4.417 4.417a1.125 1.125 0 0 1-1.591 1.59l-4.429-4.427a9.54 9.54 0 0 1-5.877 2.017c-5.293 0-9.583-4.292-9.583-9.584a9.583 9.583 0 0 1 9.583-9.583m0 2.25a7.333 7.333 0 1 0 0 14.666 7.333 7.333 0 0 0 0-14.666" clip-rule="evenodd" style="fill-opacity:1"/></symbol><symbol id="size-32" viewBox="0 0 32 32" fill="none"><path fill="currentColor" fill-rule="evenodd" d="M14.658 3.621c6.029 0 10.916 4.888 10.916 10.917 0 2.593-.907 4.972-2.417 6.845l5.07 5.07a1.25 1.25 0 0 1-1.767 1.768l-5.084-5.084a10.86 10.86 0 0 1-6.718 2.317c-6.029 0-10.917-4.887-10.917-10.916S8.629 3.621 14.658 3.621m0 2.5a8.417 8.417 0 1 0 0 16.835 8.417 8.417 0 0 0 0-16.835" clip-rule="evenodd" style="fill-opacity:1"/></symbol></svg>
